<svg xmlns="http://www.w3.org/2000/svg" xmlns:xlink="http://www.w3.org/1999/xlink" width="2000" zoomAndPan="magnify" viewBox="0 0 1500 1499.999933" height="2000" preserveAspectRatio="xMidYMid meet" version="1.0"><defs><clipPath id="d29c9f8f0f"><path d="M 137.917969 137.917969 L 1361.917969 137.917969 L 1361.917969 1361.917969 L 137.917969 1361.917969 Z M 137.917969 137.917969 " clip-rule="nonzero"/></clipPath></defs><g clip-path="url(#d29c9f8f0f)"><path fill="#6465f0" d="M 749.996094 637.703125 C 772.253906 637.703125 793.003906 644.230469 810.410156 655.359375 L 953.15625 506.671875 C 940.355469 488.429688 932.90625 466.257812 932.90625 442.324219 C 932.90625 395.71875 961.273438 355.808594 1001.6875 338.820312 L 989.636719 279.414062 C 986.710938 278.324219 983.78125 277.070312 980.851562 275.730469 C 929.226562 252.71875 896.675781 213.140625 908.222656 187.289062 C 919.6875 161.515625 970.894531 159.257812 1022.523438 182.265625 C 1074.148438 205.277344 1106.699219 244.9375 1095.152344 270.710938 C 1087.957031 286.859375 1065.28125 293.804688 1036.664062 291.125 L 1044.613281 330.117188 L 1045.113281 330.117188 C 1107.117188 330.117188 1157.40625 380.324219 1157.40625 442.324219 C 1157.40625 504.328125 1107.117188 554.617188 1045.113281 554.617188 C 1022.855469 554.617188 1002.1875 548.089844 984.703125 536.960938 L 842.039062 685.734375 C 854.753906 703.890625 862.203125 726.066406 862.203125 749.996094 C 862.203125 773.925781 854.753906 796.101562 842.039062 814.257812 L 984.703125 963.03125 C 1002.1875 951.816406 1022.855469 945.375 1045.113281 945.375 C 1107.117188 945.375 1157.40625 995.664062 1157.40625 1057.582031 C 1157.40625 1119.585938 1107.117188 1169.871094 1045.113281 1169.871094 L 1044.613281 1169.871094 L 1036.664062 1208.863281 C 1065.28125 1206.1875 1087.957031 1213.132812 1095.152344 1229.195312 C 1106.699219 1255.050781 1074.148438 1294.628906 1022.523438 1317.722656 C 970.894531 1340.734375 919.6875 1338.476562 908.222656 1312.703125 C 896.675781 1286.847656 929.226562 1247.269531 980.851562 1224.175781 C 983.78125 1222.921875 986.710938 1221.667969 989.636719 1220.496094 L 1001.6875 1161.171875 C 961.273438 1144.183594 932.90625 1104.1875 932.90625 1057.582031 C 932.90625 1033.734375 940.355469 1011.5625 953.15625 993.320312 L 810.410156 844.546875 C 793.003906 855.757812 772.253906 862.203125 749.996094 862.203125 C 727.738281 862.203125 706.988281 855.757812 689.582031 844.546875 L 546.835938 993.320312 C 559.554688 1011.5625 567.085938 1033.734375 567.085938 1057.582031 C 567.085938 1104.1875 538.636719 1144.183594 498.21875 1161.171875 L 510.351562 1220.496094 C 513.28125 1221.667969 516.210938 1222.921875 519.140625 1224.175781 C 570.765625 1247.269531 603.316406 1286.847656 591.769531 1312.703125 C 580.222656 1338.476562 529.097656 1340.734375 477.386719 1317.722656 C 425.757812 1294.628906 393.292969 1255.050781 404.757812 1229.195312 C 411.953125 1213.132812 434.710938 1206.1875 463.328125 1208.863281 L 455.378906 1169.871094 L 454.792969 1169.871094 C 392.875 1169.871094 342.585938 1119.585938 342.585938 1057.582031 C 342.585938 995.664062 392.875 945.375 454.792969 945.375 C 477.050781 945.375 497.800781 951.816406 515.289062 963.03125 L 657.953125 814.257812 C 645.234375 796.101562 637.703125 773.925781 637.703125 749.996094 C 637.703125 726.066406 645.234375 703.890625 657.953125 685.734375 L 515.289062 536.960938 C 497.800781 548.089844 477.050781 554.617188 454.792969 554.617188 C 392.875 554.617188 342.585938 504.328125 342.585938 442.324219 C 342.585938 380.324219 392.875 330.117188 454.792969 330.117188 L 455.378906 330.117188 L 463.328125 291.125 C 434.710938 293.804688 411.953125 286.859375 404.757812 270.710938 C 393.292969 244.9375 425.757812 205.277344 477.386719 182.265625 C 529.097656 159.257812 580.222656 161.515625 591.769531 187.289062 C 603.316406 213.140625 570.765625 252.71875 519.140625 275.730469 C 516.210938 277.070312 513.28125 278.324219 510.351562 279.414062 L 498.21875 338.820312 C 538.636719 355.808594 567.085938 395.71875 567.085938 442.324219 C 567.085938 466.257812 559.554688 488.429688 546.835938 506.671875 L 689.582031 655.359375 C 706.988281 644.230469 727.738281 637.703125 749.996094 637.703125 Z M 1134.898438 817.351562 L 1247.019531 942.277344 C 1268.523438 914.332031 1294.128906 899.941406 1312.703125 908.222656 C 1338.476562 919.6875 1340.734375 970.894531 1317.722656 1022.523438 C 1294.628906 1074.148438 1255.050781 1106.699219 1229.195312 1095.152344 C 1203.59375 1083.773438 1201.167969 1033.148438 1223.757812 981.855469 L 1102.429688 846.554688 C 1085.613281 856.511719 1066.03125 862.203125 1045.113281 862.203125 C 983.195312 862.203125 932.90625 812 932.90625 749.996094 C 932.90625 687.992188 983.195312 637.703125 1045.113281 637.703125 C 1066.03125 637.703125 1085.613281 643.476562 1102.429688 653.4375 L 1223.757812 518.132812 C 1201.167969 466.84375 1203.59375 416.21875 1229.195312 404.757812 C 1255.050781 393.292969 1294.628906 425.757812 1317.722656 477.386719 C 1340.734375 529.097656 1338.476562 580.222656 1312.703125 591.769531 C 1294.128906 600.050781 1268.523438 585.660156 1247.019531 557.710938 L 1134.898438 682.636719 C 1149.039062 701.382812 1157.40625 724.726562 1157.40625 749.996094 C 1157.40625 775.265625 1149.039062 798.609375 1134.898438 817.351562 Z M 397.558594 846.554688 L 276.234375 981.855469 C 298.742188 1033.148438 296.398438 1083.773438 270.710938 1095.152344 C 244.9375 1106.699219 205.277344 1074.148438 182.265625 1022.523438 C 159.257812 970.894531 161.515625 919.6875 187.289062 908.222656 C 205.863281 899.941406 231.46875 914.332031 252.972656 942.277344 L 365.011719 817.351562 C 350.953125 798.609375 342.585938 775.265625 342.585938 749.996094 C 342.585938 724.726562 350.953125 701.382812 365.011719 682.636719 L 252.972656 557.710938 C 231.46875 585.660156 205.863281 600.050781 187.289062 591.769531 C 161.515625 580.222656 159.257812 529.097656 182.265625 477.386719 C 205.277344 425.757812 244.9375 393.292969 270.710938 404.757812 C 296.398438 416.21875 298.742188 466.84375 276.234375 518.132812 L 397.558594 653.4375 C 414.296875 643.476562 433.875 637.703125 454.792969 637.703125 C 516.796875 637.703125 567.085938 687.992188 567.085938 749.996094 C 567.085938 812 516.796875 862.203125 454.792969 862.203125 C 433.875 862.203125 414.296875 856.511719 397.558594 846.554688 Z M 749.996094 1169.871094 C 812 1169.871094 862.203125 1119.585938 862.203125 1057.582031 C 862.203125 995.664062 812 945.375 749.996094 945.375 C 687.992188 945.375 637.703125 995.664062 637.703125 1057.582031 C 637.703125 1119.585938 687.992188 1169.871094 749.996094 1169.871094 Z M 137.917969 749.996094 C 137.917969 687.992188 168.628906 637.703125 206.449219 637.703125 C 244.351562 637.703125 275.0625 687.992188 275.0625 749.996094 C 275.0625 812 244.351562 862.203125 206.449219 862.203125 C 168.628906 862.203125 137.917969 812 137.917969 749.996094 Z M 749.996094 1362.070312 C 687.992188 1362.070312 637.703125 1331.363281 637.703125 1293.457031 C 637.703125 1255.636719 687.992188 1224.929688 749.996094 1224.929688 C 812 1224.929688 862.203125 1255.636719 862.203125 1293.457031 C 862.203125 1331.363281 812 1362.070312 749.996094 1362.070312 Z M 1362.070312 749.996094 C 1362.070312 812 1331.363281 862.203125 1293.457031 862.203125 C 1255.636719 862.203125 1224.929688 812 1224.929688 749.996094 C 1224.929688 687.992188 1255.636719 637.703125 1293.457031 637.703125 C 1331.363281 637.703125 1362.070312 687.992188 1362.070312 749.996094 Z M 749.996094 137.917969 C 812 137.917969 862.203125 168.628906 862.203125 206.449219 C 862.203125 244.351562 812 275.0625 749.996094 275.0625 C 687.992188 275.0625 637.703125 244.351562 637.703125 206.449219 C 637.703125 168.628906 687.992188 137.917969 749.996094 137.917969 Z M 749.996094 330.117188 C 812 330.117188 862.203125 380.324219 862.203125 442.324219 C 862.203125 504.328125 812 554.617188 749.996094 554.617188 C 687.992188 554.617188 637.703125 504.328125 637.703125 442.324219 C 637.703125 380.324219 687.992188 330.117188 749.996094 330.117188 Z M 749.996094 330.117188 " fill-opacity="1" fill-rule="evenodd"/></g></svg>